<mxfile host="drawio-plugin" modified="2021-04-19T22:20:24.546Z" agent="5.0 (X11; Linux x86_64) AppleWebKit/537.36 (KHTML, like Gecko) Chrome/87.0.4280.141 Safari/537.36" etag="KwM9XwvAtTl_ifXnFjZA" version="13.7.9" type="embed" pages="7"><diagram id="-cJZO8uB4legmB6kaeDS" name="1 x 1"><mxGraphModel dx="926" dy="221" grid="1" gridSize="10" guides="1" tooltips="1" connect="1" arrows="1" fold="1" page="1" pageScale="1" pageWidth="827" pageHeight="1169" math="0" shadow="0"><root><mxCell id="0"/><mxCell id="1" parent="0"/><mxCell id="45" value="" style="edgeStyle=entityRelationEdgeStyle;fontSize=12;html=1;endArrow=ERmandOne;startArrow=ERmandOne;exitX=1;exitY=0.5;exitDx=0;exitDy=0;entryX=0;entryY=0.5;entryDx=0;entryDy=0;" parent="1" source="16" target="38" edge="1"><mxGeometry width="100" height="100" relative="1" as="geometry"><mxPoint x="360" y="255" as="sourcePoint"/><mxPoint x="460" y="155" as="targetPoint"/></mxGeometry></mxCell><mxCell id="15" value="Cliente" style="shape=table;startSize=30;container=1;collapsible=1;childLayout=tableLayout;fixedRows=1;rowLines=0;fontStyle=1;align=center;resizeLast=1;fontSize=12;" parent="1" vertex="1"><mxGeometry x="70" y="70" width="250" height="90" as="geometry"><mxRectangle x="100" y="225" width="160" height="100" as="alternateBounds"/></mxGeometry></mxCell><mxCell id="16" value="" style="shape=partialRectangle;collapsible=0;dropTarget=0;pointerEvents=0;fillColor=none;points=[[0,0.5],[1,0.5]];portConstraint=eastwest;top=0;left=0;right=0;bottom=1;fontSize=12;" parent="15" vertex="1"><mxGeometry y="30" width="250" height="30" as="geometry"/></mxCell><mxCell id="17" value="PK" style="shape=partialRectangle;overflow=hidden;connectable=0;fillColor=none;top=0;left=0;bottom=0;right=0;fontStyle=1;fontSize=12;" parent="16" vertex="1"><mxGeometry width="30" height="30" as="geometry"/></mxCell><mxCell id="18" value="id int NOT NULL " style="shape=partialRectangle;overflow=hidden;connectable=0;fillColor=none;top=0;left=0;bottom=0;right=0;align=left;spacingLeft=6;fontStyle=5;fontSize=12;" parent="16" vertex="1"><mxGeometry x="30" width="220" height="30" as="geometry"/></mxCell><mxCell id="19" value="" style="shape=partialRectangle;collapsible=0;dropTarget=0;pointerEvents=0;fillColor=none;points=[[0,0.5],[1,0.5]];portConstraint=eastwest;top=0;left=0;right=0;bottom=0;fontSize=12;" parent="15" vertex="1"><mxGeometry y="60" width="250" height="30" as="geometry"/></mxCell><mxCell id="20" value="" style="shape=partialRectangle;overflow=hidden;connectable=0;fillColor=none;top=0;left=0;bottom=0;right=0;fontSize=12;" parent="19" vertex="1"><mxGeometry width="30" height="30" as="geometry"/></mxCell><mxCell id="21" value="..." style="shape=partialRectangle;overflow=hidden;connectable=0;fillColor=none;top=0;left=0;bottom=0;right=0;align=left;spacingLeft=6;fontSize=12;" parent="19" vertex="1"><mxGeometry x="30" width="220" height="30" as="geometry"/></mxCell><mxCell id="37" value="Endereco" style="shape=table;startSize=30;container=1;collapsible=1;childLayout=tableLayout;fixedRows=1;rowLines=0;fontStyle=1;align=center;resizeLast=1;fontSize=12;" parent="1" vertex="1"><mxGeometry x="450" y="70" width="250" height="90" as="geometry"><mxRectangle x="480" y="225" width="170" height="100" as="alternateBounds"/></mxGeometry></mxCell><mxCell id="38" value="" style="shape=partialRectangle;collapsible=0;dropTarget=0;pointerEvents=0;fillColor=none;points=[[0,0.5],[1,0.5]];portConstraint=eastwest;top=0;left=0;right=0;bottom=1;fontSize=12;" parent="37" vertex="1"><mxGeometry y="30" width="250" height="30" as="geometry"/></mxCell><mxCell id="39" value="PFK" style="shape=partialRectangle;overflow=hidden;connectable=0;fillColor=none;top=0;left=0;bottom=0;right=0;fontStyle=1;fontSize=12;" parent="38" vertex="1"><mxGeometry width="30" height="30" as="geometry"/></mxCell><mxCell id="40" value="id int NOT NULL " style="shape=partialRectangle;overflow=hidden;connectable=0;fillColor=none;top=0;left=0;bottom=0;right=0;align=left;spacingLeft=6;fontStyle=5;fontSize=12;" parent="38" vertex="1"><mxGeometry x="30" width="220" height="30" as="geometry"/></mxCell><mxCell id="41" value="" style="shape=partialRectangle;collapsible=0;dropTarget=0;pointerEvents=0;fillColor=none;points=[[0,0.5],[1,0.5]];portConstraint=eastwest;top=0;left=0;right=0;bottom=0;fontSize=12;" parent="37" vertex="1"><mxGeometry y="60" width="250" height="30" as="geometry"/></mxCell><mxCell id="42" value="" style="shape=partialRectangle;overflow=hidden;connectable=0;fillColor=none;top=0;left=0;bottom=0;right=0;fontSize=12;" parent="41" vertex="1"><mxGeometry width="30" height="30" as="geometry"/></mxCell><mxCell id="43" value="..." style="shape=partialRectangle;overflow=hidden;connectable=0;fillColor=none;top=0;left=0;bottom=0;right=0;align=left;spacingLeft=6;fontSize=12;" parent="41" vertex="1"><mxGeometry x="30" width="220" height="30" as="geometry"/></mxCell><mxCell id="it_60MPm02_DyhxIjMHB-45" value="1 x 1 (ID Compartilhado)" style="text;html=1;align=center;verticalAlign=middle;resizable=0;points=[];autosize=1;" parent="1" vertex="1"><mxGeometry x="305" y="190" width="150" height="20" as="geometry"/></mxCell></root></mxGraphModel></diagram><diagram name="1 x 1" id="f4v1BGVa0LO9kozzE3Fl"><mxGraphModel dx="648" dy="154" grid="1" gridSize="10" guides="1" tooltips="1" connect="1" arrows="1" fold="1" page="1" pageScale="1" pageWidth="827" pageHeight="1169" math="0" shadow="0"><root><mxCell id="LZWI0Lvvr0ic4wCGCZKu-0"/><mxCell id="LZWI0Lvvr0ic4wCGCZKu-1" parent="LZWI0Lvvr0ic4wCGCZKu-0"/><mxCell id="LZWI0Lvvr0ic4wCGCZKu-18" value="" style="edgeStyle=entityRelationEdgeStyle;fontSize=12;html=1;endArrow=ERmandOne;startArrow=ERmandOne;exitX=1;exitY=0.5;exitDx=0;exitDy=0;entryX=0;entryY=0.5;entryDx=0;entryDy=0;" parent="LZWI0Lvvr0ic4wCGCZKu-1" source="LZWI0Lvvr0ic4wCGCZKu-24" target="LZWI0Lvvr0ic4wCGCZKu-28" edge="1"><mxGeometry width="100" height="100" relative="1" as="geometry"><mxPoint x="400" y="255" as="sourcePoint"/><mxPoint x="500" y="155" as="targetPoint"/></mxGeometry></mxCell><mxCell id="LZWI0Lvvr0ic4wCGCZKu-19" value="1 x 1 (ID Referenciado)" style="text;html=1;align=center;verticalAlign=middle;resizable=0;points=[];autosize=1;" parent="LZWI0Lvvr0ic4wCGCZKu-1" vertex="1"><mxGeometry x="350" y="190" width="140" height="20" as="geometry"/></mxCell><mxCell id="LZWI0Lvvr0ic4wCGCZKu-20" value="Cliente" style="shape=table;startSize=30;container=1;collapsible=1;childLayout=tableLayout;fixedRows=1;rowLines=0;fontStyle=1;align=center;resizeLast=1;fontSize=12;" parent="LZWI0Lvvr0ic4wCGCZKu-1" vertex="1"><mxGeometry x="110" y="70" width="250" height="90" as="geometry"><mxRectangle x="100" y="225" width="160" height="100" as="alternateBounds"/></mxGeometry></mxCell><mxCell id="LZWI0Lvvr0ic4wCGCZKu-21" value="" style="shape=partialRectangle;collapsible=0;dropTarget=0;pointerEvents=0;fillColor=none;points=[[0,0.5],[1,0.5]];portConstraint=eastwest;top=0;left=0;right=0;bottom=1;fontSize=12;" parent="LZWI0Lvvr0ic4wCGCZKu-20" vertex="1"><mxGeometry y="30" width="250" height="30" as="geometry"/></mxCell><mxCell id="LZWI0Lvvr0ic4wCGCZKu-22" value="PK" style="shape=partialRectangle;overflow=hidden;connectable=0;fillColor=none;top=0;left=0;bottom=0;right=0;fontStyle=1;fontSize=12;" parent="LZWI0Lvvr0ic4wCGCZKu-21" vertex="1"><mxGeometry width="30" height="30" as="geometry"/></mxCell><mxCell id="LZWI0Lvvr0ic4wCGCZKu-23" value="id int NOT NULL " style="shape=partialRectangle;overflow=hidden;connectable=0;fillColor=none;top=0;left=0;bottom=0;right=0;align=left;spacingLeft=6;fontStyle=5;fontSize=12;" parent="LZWI0Lvvr0ic4wCGCZKu-21" vertex="1"><mxGeometry x="30" width="220" height="30" as="geometry"/></mxCell><mxCell id="LZWI0Lvvr0ic4wCGCZKu-24" value="" style="shape=partialRectangle;collapsible=0;dropTarget=0;pointerEvents=0;fillColor=none;points=[[0,0.5],[1,0.5]];portConstraint=eastwest;top=0;left=0;right=0;bottom=0;fontSize=12;" parent="LZWI0Lvvr0ic4wCGCZKu-20" vertex="1"><mxGeometry y="60" width="250" height="30" as="geometry"/></mxCell><mxCell id="LZWI0Lvvr0ic4wCGCZKu-25" value="FK" style="shape=partialRectangle;overflow=hidden;connectable=0;fillColor=none;top=0;left=0;bottom=0;right=0;fontSize=12;" parent="LZWI0Lvvr0ic4wCGCZKu-24" vertex="1"><mxGeometry width="30" height="30" as="geometry"/></mxCell><mxCell id="LZWI0Lvvr0ic4wCGCZKu-26" value="endereco_fk int NOT NULL" style="shape=partialRectangle;overflow=hidden;connectable=0;fillColor=none;top=0;left=0;bottom=0;right=0;align=left;spacingLeft=6;fontSize=12;" parent="LZWI0Lvvr0ic4wCGCZKu-24" vertex="1"><mxGeometry x="30" width="220" height="30" as="geometry"/></mxCell><mxCell id="LZWI0Lvvr0ic4wCGCZKu-27" value="Endereco" style="shape=table;startSize=30;container=1;collapsible=1;childLayout=tableLayout;fixedRows=1;rowLines=0;fontStyle=1;align=center;resizeLast=1;fontSize=12;" parent="LZWI0Lvvr0ic4wCGCZKu-1" vertex="1"><mxGeometry x="490" y="70" width="250" height="90" as="geometry"><mxRectangle x="480" y="225" width="170" height="100" as="alternateBounds"/></mxGeometry></mxCell><mxCell id="LZWI0Lvvr0ic4wCGCZKu-28" value="" style="shape=partialRectangle;collapsible=0;dropTarget=0;pointerEvents=0;fillColor=none;points=[[0,0.5],[1,0.5]];portConstraint=eastwest;top=0;left=0;right=0;bottom=1;fontSize=12;" parent="LZWI0Lvvr0ic4wCGCZKu-27" vertex="1"><mxGeometry y="30" width="250" height="30" as="geometry"/></mxCell><mxCell id="LZWI0Lvvr0ic4wCGCZKu-29" value="PK" style="shape=partialRectangle;overflow=hidden;connectable=0;fillColor=none;top=0;left=0;bottom=0;right=0;fontStyle=1;fontSize=12;" parent="LZWI0Lvvr0ic4wCGCZKu-28" vertex="1"><mxGeometry width="30" height="30" as="geometry"/></mxCell><mxCell id="LZWI0Lvvr0ic4wCGCZKu-30" value="id int NOT NULL " style="shape=partialRectangle;overflow=hidden;connectable=0;fillColor=none;top=0;left=0;bottom=0;right=0;align=left;spacingLeft=6;fontStyle=5;fontSize=12;" parent="LZWI0Lvvr0ic4wCGCZKu-28" vertex="1"><mxGeometry x="30" width="220" height="30" as="geometry"/></mxCell><mxCell id="LZWI0Lvvr0ic4wCGCZKu-31" value="" style="shape=partialRectangle;collapsible=0;dropTarget=0;pointerEvents=0;fillColor=none;points=[[0,0.5],[1,0.5]];portConstraint=eastwest;top=0;left=0;right=0;bottom=0;fontSize=12;" parent="LZWI0Lvvr0ic4wCGCZKu-27" vertex="1"><mxGeometry y="60" width="250" height="30" as="geometry"/></mxCell><mxCell id="LZWI0Lvvr0ic4wCGCZKu-32" value="" style="shape=partialRectangle;overflow=hidden;connectable=0;fillColor=none;top=0;left=0;bottom=0;right=0;fontSize=12;" parent="LZWI0Lvvr0ic4wCGCZKu-31" vertex="1"><mxGeometry width="30" height="30" as="geometry"/></mxCell><mxCell id="LZWI0Lvvr0ic4wCGCZKu-33" value="" style="shape=partialRectangle;overflow=hidden;connectable=0;fillColor=none;top=0;left=0;bottom=0;right=0;align=left;spacingLeft=6;fontSize=12;" parent="LZWI0Lvvr0ic4wCGCZKu-31" vertex="1"><mxGeometry x="30" width="220" height="30" as="geometry"/></mxCell></root></mxGraphModel></diagram><diagram id="h8iAOkQwNNReVruqvM9_" name="1 x Many"><mxGraphModel dx="926" dy="221" grid="1" gridSize="10" guides="1" tooltips="1" connect="1" arrows="1" fold="1" page="1" pageScale="1" pageWidth="827" pageHeight="1169" math="0" shadow="0"><root><mxCell id="EdGn1_xKnMHWhqD9SFrW-0"/><mxCell id="EdGn1_xKnMHWhqD9SFrW-1" parent="EdGn1_xKnMHWhqD9SFrW-0"/><mxCell id="cPPrRR4nFwRamd-4L3Du-8" value="Endereco" style="shape=table;startSize=30;container=1;collapsible=1;childLayout=tableLayout;fixedRows=1;rowLines=0;fontStyle=1;align=center;resizeLast=1;fontSize=12;" parent="EdGn1_xKnMHWhqD9SFrW-1" vertex="1"><mxGeometry x="480" y="225" width="250" height="90" as="geometry"><mxRectangle x="480" y="225" width="170" height="100" as="alternateBounds"/></mxGeometry></mxCell><mxCell id="cPPrRR4nFwRamd-4L3Du-9" value="" style="shape=partialRectangle;collapsible=0;dropTarget=0;pointerEvents=0;fillColor=none;points=[[0,0.5],[1,0.5]];portConstraint=eastwest;top=0;left=0;right=0;bottom=1;fontSize=12;" parent="cPPrRR4nFwRamd-4L3Du-8" vertex="1"><mxGeometry y="30" width="250" height="30" as="geometry"/></mxCell><mxCell id="cPPrRR4nFwRamd-4L3Du-10" value="PK" style="shape=partialRectangle;overflow=hidden;connectable=0;fillColor=none;top=0;left=0;bottom=0;right=0;fontStyle=1;fontSize=12;" parent="cPPrRR4nFwRamd-4L3Du-9" vertex="1"><mxGeometry width="30" height="30" as="geometry"/></mxCell><mxCell id="cPPrRR4nFwRamd-4L3Du-11" value="id int NOT NULL " style="shape=partialRectangle;overflow=hidden;connectable=0;fillColor=none;top=0;left=0;bottom=0;right=0;align=left;spacingLeft=6;fontStyle=5;fontSize=12;" parent="cPPrRR4nFwRamd-4L3Du-9" vertex="1"><mxGeometry x="30" width="220" height="30" as="geometry"/></mxCell><mxCell id="cPPrRR4nFwRamd-4L3Du-12" value="" style="shape=partialRectangle;collapsible=0;dropTarget=0;pointerEvents=0;fillColor=none;points=[[0,0.5],[1,0.5]];portConstraint=eastwest;top=0;left=0;right=0;bottom=0;fontSize=12;" parent="cPPrRR4nFwRamd-4L3Du-8" vertex="1"><mxGeometry y="60" width="250" height="30" as="geometry"/></mxCell><mxCell id="cPPrRR4nFwRamd-4L3Du-13" value="FK" style="shape=partialRectangle;overflow=hidden;connectable=0;fillColor=none;top=0;left=0;bottom=0;right=0;fontSize=12;" parent="cPPrRR4nFwRamd-4L3Du-12" vertex="1"><mxGeometry width="30" height="30" as="geometry"/></mxCell><mxCell id="cPPrRR4nFwRamd-4L3Du-14" value="cliente_fk int NOT NULL" style="shape=partialRectangle;overflow=hidden;connectable=0;fillColor=none;top=0;left=0;bottom=0;right=0;align=left;spacingLeft=6;fontSize=12;" parent="cPPrRR4nFwRamd-4L3Du-12" vertex="1"><mxGeometry x="30" width="220" height="30" as="geometry"/></mxCell><mxCell id="cPPrRR4nFwRamd-4L3Du-16" value="" style="edgeStyle=entityRelationEdgeStyle;fontSize=12;html=1;endArrow=ERoneToMany;exitX=1;exitY=0.5;exitDx=0;exitDy=0;entryX=0;entryY=0.5;entryDx=0;entryDy=0;" parent="EdGn1_xKnMHWhqD9SFrW-1" source="cPPrRR4nFwRamd-4L3Du-2" target="cPPrRR4nFwRamd-4L3Du-12" edge="1"><mxGeometry width="100" height="100" relative="1" as="geometry"><mxPoint x="340" y="330" as="sourcePoint"/><mxPoint x="440" y="230" as="targetPoint"/></mxGeometry></mxCell><mxCell id="cPPrRR4nFwRamd-4L3Du-1" value="Cliente" style="shape=table;startSize=30;container=1;collapsible=1;childLayout=tableLayout;fixedRows=1;rowLines=0;fontStyle=1;align=center;resizeLast=1;fontSize=12;" parent="EdGn1_xKnMHWhqD9SFrW-1" vertex="1"><mxGeometry x="20" y="225" width="250" height="90" as="geometry"><mxRectangle x="100" y="225" width="160" height="100" as="alternateBounds"/></mxGeometry></mxCell><mxCell id="cPPrRR4nFwRamd-4L3Du-2" value="" style="shape=partialRectangle;collapsible=0;dropTarget=0;pointerEvents=0;fillColor=none;points=[[0,0.5],[1,0.5]];portConstraint=eastwest;top=0;left=0;right=0;bottom=1;fontSize=12;" parent="cPPrRR4nFwRamd-4L3Du-1" vertex="1"><mxGeometry y="30" width="250" height="30" as="geometry"/></mxCell><mxCell id="cPPrRR4nFwRamd-4L3Du-3" value="PK" style="shape=partialRectangle;overflow=hidden;connectable=0;fillColor=none;top=0;left=0;bottom=0;right=0;fontStyle=1;fontSize=12;" parent="cPPrRR4nFwRamd-4L3Du-2" vertex="1"><mxGeometry width="30" height="30" as="geometry"/></mxCell><mxCell id="cPPrRR4nFwRamd-4L3Du-4" value="id int NOT NULL " style="shape=partialRectangle;overflow=hidden;connectable=0;fillColor=none;top=0;left=0;bottom=0;right=0;align=left;spacingLeft=6;fontStyle=5;fontSize=12;" parent="cPPrRR4nFwRamd-4L3Du-2" vertex="1"><mxGeometry x="30" width="220" height="30" as="geometry"/></mxCell><mxCell id="cPPrRR4nFwRamd-4L3Du-5" value="" style="shape=partialRectangle;collapsible=0;dropTarget=0;pointerEvents=0;fillColor=none;points=[[0,0.5],[1,0.5]];portConstraint=eastwest;top=0;left=0;right=0;bottom=0;fontSize=12;" parent="cPPrRR4nFwRamd-4L3Du-1" vertex="1"><mxGeometry y="60" width="250" height="30" as="geometry"/></mxCell><mxCell id="cPPrRR4nFwRamd-4L3Du-6" value="" style="shape=partialRectangle;overflow=hidden;connectable=0;fillColor=none;top=0;left=0;bottom=0;right=0;fontSize=12;" parent="cPPrRR4nFwRamd-4L3Du-5" vertex="1"><mxGeometry width="30" height="30" as="geometry"/></mxCell><mxCell id="cPPrRR4nFwRamd-4L3Du-7" value="" style="shape=partialRectangle;overflow=hidden;connectable=0;fillColor=none;top=0;left=0;bottom=0;right=0;align=left;spacingLeft=6;fontSize=12;" parent="cPPrRR4nFwRamd-4L3Du-5" vertex="1"><mxGeometry x="30" width="220" height="30" as="geometry"/></mxCell><mxCell id="gH46TP-cFO0cDfJg5GeJ-0" value="SENTIDO" style="endArrow=classic;html=1;" parent="EdGn1_xKnMHWhqD9SFrW-1" edge="1"><mxGeometry width="50" height="50" relative="1" as="geometry"><mxPoint x="190" y="410" as="sourcePoint"/><mxPoint x="540" y="410" as="targetPoint"/><Array as="points"><mxPoint x="360" y="410"/></Array></mxGeometry></mxCell></root></mxGraphModel></diagram><diagram id="4Ql79Vr5iV4cgCExxP9y" name="Many to 1"><mxGraphModel dx="926" dy="221" grid="1" gridSize="10" guides="1" tooltips="1" connect="1" arrows="1" fold="1" page="1" pageScale="1" pageWidth="827" pageHeight="1169" math="0" shadow="0"><root><mxCell id="K9wZQX6lgxkzt17ViRfa-0"/><mxCell id="K9wZQX6lgxkzt17ViRfa-1" parent="K9wZQX6lgxkzt17ViRfa-0"/><mxCell id="Zi9EloezBamPYI4cfAQm-0" value="Endereco" style="shape=table;startSize=30;container=1;collapsible=1;childLayout=tableLayout;fixedRows=1;rowLines=0;fontStyle=1;align=center;resizeLast=1;fontSize=12;" parent="K9wZQX6lgxkzt17ViRfa-1" vertex="1"><mxGeometry x="480" y="225" width="250" height="120" as="geometry"><mxRectangle x="480" y="225" width="170" height="100" as="alternateBounds"/></mxGeometry></mxCell><mxCell id="Zi9EloezBamPYI4cfAQm-1" value="" style="shape=partialRectangle;collapsible=0;dropTarget=0;pointerEvents=0;fillColor=none;points=[[0,0.5],[1,0.5]];portConstraint=eastwest;top=0;left=0;right=0;bottom=1;fontSize=12;" parent="Zi9EloezBamPYI4cfAQm-0" vertex="1"><mxGeometry y="30" width="250" height="30" as="geometry"/></mxCell><mxCell id="Zi9EloezBamPYI4cfAQm-2" value="PK" style="shape=partialRectangle;overflow=hidden;connectable=0;fillColor=none;top=0;left=0;bottom=0;right=0;fontStyle=1;fontSize=12;" parent="Zi9EloezBamPYI4cfAQm-1" vertex="1"><mxGeometry width="30" height="30" as="geometry"/></mxCell><mxCell id="Zi9EloezBamPYI4cfAQm-3" value="id int NOT NULL " style="shape=partialRectangle;overflow=hidden;connectable=0;fillColor=none;top=0;left=0;bottom=0;right=0;align=left;spacingLeft=6;fontStyle=5;fontSize=12;" parent="Zi9EloezBamPYI4cfAQm-1" vertex="1"><mxGeometry x="30" width="220" height="30" as="geometry"/></mxCell><mxCell id="Zi9EloezBamPYI4cfAQm-4" value="" style="shape=partialRectangle;collapsible=0;dropTarget=0;pointerEvents=0;fillColor=none;points=[[0,0.5],[1,0.5]];portConstraint=eastwest;top=0;left=0;right=0;bottom=0;fontSize=12;" parent="Zi9EloezBamPYI4cfAQm-0" vertex="1"><mxGeometry y="60" width="250" height="30" as="geometry"/></mxCell><mxCell id="Zi9EloezBamPYI4cfAQm-5" value="FK" style="shape=partialRectangle;overflow=hidden;connectable=0;fillColor=none;top=0;left=0;bottom=0;right=0;fontSize=12;" parent="Zi9EloezBamPYI4cfAQm-4" vertex="1"><mxGeometry width="30" height="30" as="geometry"/></mxCell><mxCell id="Zi9EloezBamPYI4cfAQm-6" value="cliente_fk int NOT NULL" style="shape=partialRectangle;overflow=hidden;connectable=0;fillColor=none;top=0;left=0;bottom=0;right=0;align=left;spacingLeft=6;fontSize=12;" parent="Zi9EloezBamPYI4cfAQm-4" vertex="1"><mxGeometry x="30" width="220" height="30" as="geometry"/></mxCell><mxCell id="93T-BszCKd6nx-MDtQ_T-0" value="" style="shape=partialRectangle;collapsible=0;dropTarget=0;pointerEvents=0;fillColor=none;points=[[0,0.5],[1,0.5]];portConstraint=eastwest;top=0;left=0;right=0;bottom=0;fontSize=12;" parent="Zi9EloezBamPYI4cfAQm-0" vertex="1"><mxGeometry y="90" width="250" height="30" as="geometry"/></mxCell><mxCell id="93T-BszCKd6nx-MDtQ_T-1" value="" style="shape=partialRectangle;overflow=hidden;connectable=0;fillColor=none;top=0;left=0;bottom=0;right=0;fontSize=12;" parent="93T-BszCKd6nx-MDtQ_T-0" vertex="1"><mxGeometry width="30" height="30" as="geometry"/></mxCell><mxCell id="93T-BszCKd6nx-MDtQ_T-2" value="..." style="shape=partialRectangle;overflow=hidden;connectable=0;fillColor=none;top=0;left=0;bottom=0;right=0;align=left;spacingLeft=6;fontSize=12;" parent="93T-BszCKd6nx-MDtQ_T-0" vertex="1"><mxGeometry x="30" width="220" height="30" as="geometry"/></mxCell><mxCell id="Zi9EloezBamPYI4cfAQm-7" value="" style="edgeStyle=entityRelationEdgeStyle;fontSize=12;html=1;endArrow=ERoneToMany;exitX=1;exitY=0.5;exitDx=0;exitDy=0;entryX=0;entryY=0.5;entryDx=0;entryDy=0;" parent="K9wZQX6lgxkzt17ViRfa-1" source="Zi9EloezBamPYI4cfAQm-9" target="Zi9EloezBamPYI4cfAQm-4" edge="1"><mxGeometry width="100" height="100" relative="1" as="geometry"><mxPoint x="340" y="330" as="sourcePoint"/><mxPoint x="440" y="230" as="targetPoint"/></mxGeometry></mxCell><mxCell id="Zi9EloezBamPYI4cfAQm-8" value="Cliente" style="shape=table;startSize=30;container=1;collapsible=1;childLayout=tableLayout;fixedRows=1;rowLines=0;fontStyle=1;align=center;resizeLast=1;fontSize=12;" parent="K9wZQX6lgxkzt17ViRfa-1" vertex="1"><mxGeometry x="20" y="225" width="250" height="90" as="geometry"><mxRectangle x="100" y="225" width="160" height="100" as="alternateBounds"/></mxGeometry></mxCell><mxCell id="Zi9EloezBamPYI4cfAQm-9" value="" style="shape=partialRectangle;collapsible=0;dropTarget=0;pointerEvents=0;fillColor=none;points=[[0,0.5],[1,0.5]];portConstraint=eastwest;top=0;left=0;right=0;bottom=1;fontSize=12;" parent="Zi9EloezBamPYI4cfAQm-8" vertex="1"><mxGeometry y="30" width="250" height="30" as="geometry"/></mxCell><mxCell id="Zi9EloezBamPYI4cfAQm-10" value="PK" style="shape=partialRectangle;overflow=hidden;connectable=0;fillColor=none;top=0;left=0;bottom=0;right=0;fontStyle=1;fontSize=12;" parent="Zi9EloezBamPYI4cfAQm-9" vertex="1"><mxGeometry width="30" height="30" as="geometry"/></mxCell><mxCell id="Zi9EloezBamPYI4cfAQm-11" value="id int NOT NULL " style="shape=partialRectangle;overflow=hidden;connectable=0;fillColor=none;top=0;left=0;bottom=0;right=0;align=left;spacingLeft=6;fontStyle=5;fontSize=12;" parent="Zi9EloezBamPYI4cfAQm-9" vertex="1"><mxGeometry x="30" width="220" height="30" as="geometry"/></mxCell><mxCell id="Zi9EloezBamPYI4cfAQm-12" value="" style="shape=partialRectangle;collapsible=0;dropTarget=0;pointerEvents=0;fillColor=none;points=[[0,0.5],[1,0.5]];portConstraint=eastwest;top=0;left=0;right=0;bottom=0;fontSize=12;" parent="Zi9EloezBamPYI4cfAQm-8" vertex="1"><mxGeometry y="60" width="250" height="30" as="geometry"/></mxCell><mxCell id="Zi9EloezBamPYI4cfAQm-13" value="" style="shape=partialRectangle;overflow=hidden;connectable=0;fillColor=none;top=0;left=0;bottom=0;right=0;fontSize=12;" parent="Zi9EloezBamPYI4cfAQm-12" vertex="1"><mxGeometry width="30" height="30" as="geometry"/></mxCell><mxCell id="Zi9EloezBamPYI4cfAQm-14" value="..." style="shape=partialRectangle;overflow=hidden;connectable=0;fillColor=none;top=0;left=0;bottom=0;right=0;align=left;spacingLeft=6;fontSize=12;" parent="Zi9EloezBamPYI4cfAQm-12" vertex="1"><mxGeometry x="30" width="220" height="30" as="geometry"/></mxCell><mxCell id="Zi9EloezBamPYI4cfAQm-16" value="" style="endArrow=classic;html=1;" parent="K9wZQX6lgxkzt17ViRfa-1" edge="1"><mxGeometry width="50" height="50" relative="1" as="geometry"><mxPoint x="570" y="440" as="sourcePoint"/><mxPoint x="210" y="440" as="targetPoint"/></mxGeometry></mxCell><mxCell id="Zi9EloezBamPYI4cfAQm-17" value="SENTIDO" style="edgeLabel;html=1;align=center;verticalAlign=middle;resizable=0;points=[];" parent="Zi9EloezBamPYI4cfAQm-16" vertex="1" connectable="0"><mxGeometry x="-0.1778" y="-1" relative="1" as="geometry"><mxPoint x="-32" as="offset"/></mxGeometry></mxCell></root></mxGraphModel></diagram><diagram id="DCMyEohuSKf0Z7_tJ8rK" name="Many to Many"><mxGraphModel dx="1944" dy="266" grid="1" gridSize="10" guides="1" tooltips="1" connect="1" arrows="1" fold="1" page="1" pageScale="1" pageWidth="827" pageHeight="1169" math="0" shadow="0"><root><mxCell id="-hu12Tw1DanzJFIAmwB4-0"/><mxCell id="-hu12Tw1DanzJFIAmwB4-1" parent="-hu12Tw1DanzJFIAmwB4-0"/><mxCell id="ocTp-3TdxYK6GGCg0uOa-7" value="" style="edgeStyle=entityRelationEdgeStyle;fontSize=12;html=1;endArrow=ERoneToMany;exitX=1;exitY=0.5;exitDx=0;exitDy=0;entryX=0;entryY=0.5;entryDx=0;entryDy=0;" parent="-hu12Tw1DanzJFIAmwB4-1" source="ocTp-3TdxYK6GGCg0uOa-9" target="LXLexVuItGrBPJJU2hWx-1" edge="1"><mxGeometry width="100" height="100" relative="1" as="geometry"><mxPoint x="340" y="330" as="sourcePoint"/><mxPoint x="440" y="230" as="targetPoint"/></mxGeometry></mxCell><mxCell id="ocTp-3TdxYK6GGCg0uOa-8" value="Cliente" style="shape=table;startSize=30;container=1;collapsible=1;childLayout=tableLayout;fixedRows=1;rowLines=0;fontStyle=1;align=center;resizeLast=1;fontSize=12;" parent="-hu12Tw1DanzJFIAmwB4-1" vertex="1"><mxGeometry x="-40" y="250" width="250" height="90" as="geometry"><mxRectangle x="100" y="225" width="160" height="100" as="alternateBounds"/></mxGeometry></mxCell><mxCell id="ocTp-3TdxYK6GGCg0uOa-9" value="" style="shape=partialRectangle;collapsible=0;dropTarget=0;pointerEvents=0;fillColor=none;points=[[0,0.5],[1,0.5]];portConstraint=eastwest;top=0;left=0;right=0;bottom=1;fontSize=12;" parent="ocTp-3TdxYK6GGCg0uOa-8" vertex="1"><mxGeometry y="30" width="250" height="30" as="geometry"/></mxCell><mxCell id="ocTp-3TdxYK6GGCg0uOa-10" value="PK" style="shape=partialRectangle;overflow=hidden;connectable=0;fillColor=none;top=0;left=0;bottom=0;right=0;fontStyle=1;fontSize=12;" parent="ocTp-3TdxYK6GGCg0uOa-9" vertex="1"><mxGeometry width="30" height="30" as="geometry"/></mxCell><mxCell id="ocTp-3TdxYK6GGCg0uOa-11" value="id int NOT NULL " style="shape=partialRectangle;overflow=hidden;connectable=0;fillColor=none;top=0;left=0;bottom=0;right=0;align=left;spacingLeft=6;fontStyle=5;fontSize=12;" parent="ocTp-3TdxYK6GGCg0uOa-9" vertex="1"><mxGeometry x="30" width="220" height="30" as="geometry"/></mxCell><mxCell id="ocTp-3TdxYK6GGCg0uOa-12" value="" style="shape=partialRectangle;collapsible=0;dropTarget=0;pointerEvents=0;fillColor=none;points=[[0,0.5],[1,0.5]];portConstraint=eastwest;top=0;left=0;right=0;bottom=0;fontSize=12;" parent="ocTp-3TdxYK6GGCg0uOa-8" vertex="1"><mxGeometry y="60" width="250" height="30" as="geometry"/></mxCell><mxCell id="ocTp-3TdxYK6GGCg0uOa-13" value="" style="shape=partialRectangle;overflow=hidden;connectable=0;fillColor=none;top=0;left=0;bottom=0;right=0;fontSize=12;" parent="ocTp-3TdxYK6GGCg0uOa-12" vertex="1"><mxGeometry width="30" height="30" as="geometry"/></mxCell><mxCell id="ocTp-3TdxYK6GGCg0uOa-14" value="..." style="shape=partialRectangle;overflow=hidden;connectable=0;fillColor=none;top=0;left=0;bottom=0;right=0;align=left;spacingLeft=6;fontSize=12;" parent="ocTp-3TdxYK6GGCg0uOa-12" vertex="1"><mxGeometry x="30" width="220" height="30" as="geometry"/></mxCell><mxCell id="V6BajLlsrfCVxYOjCVkA-2" value="" style="edgeStyle=entityRelationEdgeStyle;fontSize=12;html=1;endArrow=ERmany;entryX=0;entryY=0.5;entryDx=0;entryDy=0;" parent="-hu12Tw1DanzJFIAmwB4-1" source="ocTp-3TdxYK6GGCg0uOa-1" target="LXLexVuItGrBPJJU2hWx-4" edge="1"><mxGeometry width="100" height="100" relative="1" as="geometry"><mxPoint x="260" y="60" as="sourcePoint"/><mxPoint x="445" y="200" as="targetPoint"/></mxGeometry></mxCell><mxCell id="ocTp-3TdxYK6GGCg0uOa-0" value="Endereco" style="shape=table;startSize=30;container=1;collapsible=1;childLayout=tableLayout;fixedRows=1;rowLines=0;fontStyle=1;align=center;resizeLast=1;fontSize=12;" parent="-hu12Tw1DanzJFIAmwB4-1" vertex="1"><mxGeometry x="-40" y="400" width="250" height="85" as="geometry"><mxRectangle x="480" y="225" width="170" height="100" as="alternateBounds"/></mxGeometry></mxCell><mxCell id="ocTp-3TdxYK6GGCg0uOa-1" value="" style="shape=partialRectangle;collapsible=0;dropTarget=0;pointerEvents=0;fillColor=none;points=[[0,0.5],[1,0.5]];portConstraint=eastwest;top=0;left=0;right=0;bottom=1;fontSize=12;" parent="ocTp-3TdxYK6GGCg0uOa-0" vertex="1"><mxGeometry y="30" width="250" height="30" as="geometry"/></mxCell><mxCell id="ocTp-3TdxYK6GGCg0uOa-2" value="PK" style="shape=partialRectangle;overflow=hidden;connectable=0;fillColor=none;top=0;left=0;bottom=0;right=0;fontStyle=1;fontSize=12;" parent="ocTp-3TdxYK6GGCg0uOa-1" vertex="1"><mxGeometry width="30" height="30" as="geometry"/></mxCell><mxCell id="ocTp-3TdxYK6GGCg0uOa-3" value="id int NOT NULL " style="shape=partialRectangle;overflow=hidden;connectable=0;fillColor=none;top=0;left=0;bottom=0;right=0;align=left;spacingLeft=6;fontStyle=5;fontSize=12;" parent="ocTp-3TdxYK6GGCg0uOa-1" vertex="1"><mxGeometry x="30" width="220" height="30" as="geometry"/></mxCell><mxCell id="ocTp-3TdxYK6GGCg0uOa-4" value="" style="shape=partialRectangle;collapsible=0;dropTarget=0;pointerEvents=0;fillColor=none;points=[[0,0.5],[1,0.5]];portConstraint=eastwest;top=0;left=0;right=0;bottom=0;fontSize=12;" parent="ocTp-3TdxYK6GGCg0uOa-0" vertex="1"><mxGeometry y="60" width="250" height="25" as="geometry"/></mxCell><mxCell id="ocTp-3TdxYK6GGCg0uOa-5" value="" style="shape=partialRectangle;overflow=hidden;connectable=0;fillColor=none;top=0;left=0;bottom=0;right=0;fontSize=12;" parent="ocTp-3TdxYK6GGCg0uOa-4" vertex="1"><mxGeometry width="30" height="25" as="geometry"/></mxCell><mxCell id="ocTp-3TdxYK6GGCg0uOa-6" value="..." style="shape=partialRectangle;overflow=hidden;connectable=0;fillColor=none;top=0;left=0;bottom=0;right=0;align=left;spacingLeft=6;fontSize=12;" parent="ocTp-3TdxYK6GGCg0uOa-4" vertex="1"><mxGeometry x="30" width="220" height="25" as="geometry"/></mxCell><mxCell id="LXLexVuItGrBPJJU2hWx-0" value="ClienteEndereco" style="shape=table;startSize=30;container=1;collapsible=1;childLayout=tableLayout;fixedRows=1;rowLines=0;fontStyle=1;align=center;resizeLast=1;" parent="-hu12Tw1DanzJFIAmwB4-1" vertex="1"><mxGeometry x="420" y="310" width="240" height="120" as="geometry"/></mxCell><mxCell id="LXLexVuItGrBPJJU2hWx-1" value="" style="shape=partialRectangle;collapsible=0;dropTarget=0;pointerEvents=0;fillColor=none;top=0;left=0;bottom=0;right=0;points=[[0,0.5],[1,0.5]];portConstraint=eastwest;" parent="LXLexVuItGrBPJJU2hWx-0" vertex="1"><mxGeometry y="30" width="240" height="30" as="geometry"/></mxCell><mxCell id="LXLexVuItGrBPJJU2hWx-2" value="PFK1" style="shape=partialRectangle;connectable=0;fillColor=none;top=0;left=0;bottom=0;right=0;fontStyle=1;overflow=hidden;" parent="LXLexVuItGrBPJJU2hWx-1" vertex="1"><mxGeometry width="60" height="30" as="geometry"/></mxCell><mxCell id="LXLexVuItGrBPJJU2hWx-3" value="cliente_fk int NOT NULL" style="shape=partialRectangle;connectable=0;fillColor=none;top=0;left=0;bottom=0;right=0;align=left;spacingLeft=6;fontStyle=5;overflow=hidden;" parent="LXLexVuItGrBPJJU2hWx-1" vertex="1"><mxGeometry x="60" width="180" height="30" as="geometry"/></mxCell><mxCell id="LXLexVuItGrBPJJU2hWx-4" value="" style="shape=partialRectangle;collapsible=0;dropTarget=0;pointerEvents=0;fillColor=none;top=0;left=0;bottom=1;right=0;points=[[0,0.5],[1,0.5]];portConstraint=eastwest;" parent="LXLexVuItGrBPJJU2hWx-0" vertex="1"><mxGeometry y="60" width="240" height="30" as="geometry"/></mxCell><mxCell id="LXLexVuItGrBPJJU2hWx-5" value="PFK2" style="shape=partialRectangle;connectable=0;fillColor=none;top=0;left=0;bottom=0;right=0;fontStyle=1;overflow=hidden;" parent="LXLexVuItGrBPJJU2hWx-4" vertex="1"><mxGeometry width="60" height="30" as="geometry"/></mxCell><mxCell id="LXLexVuItGrBPJJU2hWx-6" value="endereco_fk int NOT NULL" style="shape=partialRectangle;connectable=0;fillColor=none;top=0;left=0;bottom=0;right=0;align=left;spacingLeft=6;fontStyle=5;overflow=hidden;" parent="LXLexVuItGrBPJJU2hWx-4" vertex="1"><mxGeometry x="60" width="180" height="30" as="geometry"/></mxCell><mxCell id="LXLexVuItGrBPJJU2hWx-7" value="" style="shape=partialRectangle;collapsible=0;dropTarget=0;pointerEvents=0;fillColor=none;top=0;left=0;bottom=0;right=0;points=[[0,0.5],[1,0.5]];portConstraint=eastwest;" parent="LXLexVuItGrBPJJU2hWx-0" vertex="1"><mxGeometry y="90" width="240" height="30" as="geometry"/></mxCell><mxCell id="LXLexVuItGrBPJJU2hWx-8" value="" style="shape=partialRectangle;connectable=0;fillColor=none;top=0;left=0;bottom=0;right=0;editable=1;overflow=hidden;" parent="LXLexVuItGrBPJJU2hWx-7" vertex="1"><mxGeometry width="60" height="30" as="geometry"/></mxCell><mxCell id="LXLexVuItGrBPJJU2hWx-9" value="" style="shape=partialRectangle;connectable=0;fillColor=none;top=0;left=0;bottom=0;right=0;align=left;spacingLeft=6;overflow=hidden;" parent="LXLexVuItGrBPJJU2hWx-7" vertex="1"><mxGeometry x="60" width="180" height="30" as="geometry"/></mxCell></root></mxGraphModel></diagram><diagram id="8dwala4SQaoDYGa8Wqmx" name="Auto Relacionamento"><mxGraphModel dx="771" dy="184" grid="1" gridSize="10" guides="1" tooltips="1" connect="1" arrows="1" fold="1" page="1" pageScale="1" pageWidth="827" pageHeight="1169" math="0" shadow="0"><root><mxCell id="2ts0-Rs_vjjxcxJ9rDmZ-0"/><mxCell id="2ts0-Rs_vjjxcxJ9rDmZ-1" parent="2ts0-Rs_vjjxcxJ9rDmZ-0"/><mxCell id="aCDhQ4rPMmf97e0_Qfp4-12" value="Auto Relacionamento 1 x 1" style="text;html=1;align=center;verticalAlign=middle;resizable=0;points=[];autosize=1;" parent="2ts0-Rs_vjjxcxJ9rDmZ-1" vertex="1"><mxGeometry x="115" y="170" width="160" height="20" as="geometry"/></mxCell><mxCell id="sgU0sq0uC4FIsb4QNO78-0" value="Cliente" style="shape=table;startSize=30;container=1;collapsible=1;childLayout=tableLayout;fixedRows=1;rowLines=0;fontStyle=1;align=center;resizeLast=1;fontSize=12;" parent="2ts0-Rs_vjjxcxJ9rDmZ-1" vertex="1"><mxGeometry x="70" y="50" width="250" height="90" as="geometry"><mxRectangle x="100" y="225" width="160" height="100" as="alternateBounds"/></mxGeometry></mxCell><mxCell id="sgU0sq0uC4FIsb4QNO78-1" value="" style="shape=partialRectangle;collapsible=0;dropTarget=0;pointerEvents=0;fillColor=none;points=[[0,0.5],[1,0.5]];portConstraint=eastwest;top=0;left=0;right=0;bottom=1;fontSize=12;" parent="sgU0sq0uC4FIsb4QNO78-0" vertex="1"><mxGeometry y="30" width="250" height="30" as="geometry"/></mxCell><mxCell id="sgU0sq0uC4FIsb4QNO78-2" value="PK" style="shape=partialRectangle;overflow=hidden;connectable=0;fillColor=none;top=0;left=0;bottom=0;right=0;fontStyle=1;fontSize=12;" parent="sgU0sq0uC4FIsb4QNO78-1" vertex="1"><mxGeometry width="30" height="30" as="geometry"/></mxCell><mxCell id="sgU0sq0uC4FIsb4QNO78-3" value="id int NOT NULL " style="shape=partialRectangle;overflow=hidden;connectable=0;fillColor=none;top=0;left=0;bottom=0;right=0;align=left;spacingLeft=6;fontStyle=5;fontSize=12;" parent="sgU0sq0uC4FIsb4QNO78-1" vertex="1"><mxGeometry x="30" width="220" height="30" as="geometry"/></mxCell><mxCell id="sgU0sq0uC4FIsb4QNO78-4" value="" style="shape=partialRectangle;collapsible=0;dropTarget=0;pointerEvents=0;fillColor=none;points=[[0,0.5],[1,0.5]];portConstraint=eastwest;top=0;left=0;right=0;bottom=0;fontSize=12;" parent="sgU0sq0uC4FIsb4QNO78-0" vertex="1"><mxGeometry y="60" width="250" height="30" as="geometry"/></mxCell><mxCell id="sgU0sq0uC4FIsb4QNO78-5" value="UFK" style="shape=partialRectangle;overflow=hidden;connectable=0;fillColor=none;top=0;left=0;bottom=0;right=0;fontSize=12;" parent="sgU0sq0uC4FIsb4QNO78-4" vertex="1"><mxGeometry width="30" height="30" as="geometry"/></mxCell><mxCell id="sgU0sq0uC4FIsb4QNO78-6" value="indicado_por_fk" style="shape=partialRectangle;overflow=hidden;connectable=0;fillColor=none;top=0;left=0;bottom=0;right=0;align=left;spacingLeft=6;fontSize=12;" parent="sgU0sq0uC4FIsb4QNO78-4" vertex="1"><mxGeometry x="30" width="220" height="30" as="geometry"/></mxCell><mxCell id="aCDhQ4rPMmf97e0_Qfp4-0" value="" style="edgeStyle=entityRelationEdgeStyle;fontSize=12;html=1;endArrow=ERmandOne;startArrow=ERmandOne;exitX=1;exitY=0.5;exitDx=0;exitDy=0;" parent="sgU0sq0uC4FIsb4QNO78-0" source="sgU0sq0uC4FIsb4QNO78-1" target="sgU0sq0uC4FIsb4QNO78-4" edge="1"><mxGeometry width="100" height="100" relative="1" as="geometry"><mxPoint x="60" y="120" as="sourcePoint"/><mxPoint x="160" y="20" as="targetPoint"/></mxGeometry></mxCell></root></mxGraphModel></diagram><diagram name="Auto Relacionamento 1 x Muitos" id="UENejjPOIkKRn1sjjFQA"><mxGraphModel dx="1620" dy="386" grid="1" gridSize="10" guides="1" tooltips="1" connect="1" arrows="1" fold="1" page="1" pageScale="1" pageWidth="827" pageHeight="1169" math="0" shadow="0"><root><mxCell id="XCzEEoF6hQ8Vd370a8fC-0"/><mxCell id="XCzEEoF6hQ8Vd370a8fC-1" parent="XCzEEoF6hQ8Vd370a8fC-0"/><mxCell id="XCzEEoF6hQ8Vd370a8fC-3" value="Auto Relacionamento 1 x Muitos" style="text;html=1;align=center;verticalAlign=middle;resizable=0;points=[];autosize=1;" parent="XCzEEoF6hQ8Vd370a8fC-1" vertex="1"><mxGeometry x="75" y="180" width="190" height="20" as="geometry"/></mxCell><mxCell id="XCzEEoF6hQ8Vd370a8fC-12" value="Cliente" style="shape=table;startSize=30;container=1;collapsible=1;childLayout=tableLayout;fixedRows=1;rowLines=0;fontStyle=1;align=center;resizeLast=1;fontSize=12;" parent="XCzEEoF6hQ8Vd370a8fC-1" vertex="1"><mxGeometry x="50" y="60" width="250" height="90" as="geometry"><mxRectangle x="100" y="225" width="160" height="100" as="alternateBounds"/></mxGeometry></mxCell><mxCell id="XCzEEoF6hQ8Vd370a8fC-13" value="" style="shape=partialRectangle;collapsible=0;dropTarget=0;pointerEvents=0;fillColor=none;points=[[0,0.5],[1,0.5]];portConstraint=eastwest;top=0;left=0;right=0;bottom=1;fontSize=12;" parent="XCzEEoF6hQ8Vd370a8fC-12" vertex="1"><mxGeometry y="30" width="250" height="30" as="geometry"/></mxCell><mxCell id="XCzEEoF6hQ8Vd370a8fC-14" value="PK" style="shape=partialRectangle;overflow=hidden;connectable=0;fillColor=none;top=0;left=0;bottom=0;right=0;fontStyle=1;fontSize=12;" parent="XCzEEoF6hQ8Vd370a8fC-13" vertex="1"><mxGeometry width="30" height="30" as="geometry"/></mxCell><mxCell id="XCzEEoF6hQ8Vd370a8fC-15" value="id int NOT NULL " style="shape=partialRectangle;overflow=hidden;connectable=0;fillColor=none;top=0;left=0;bottom=0;right=0;align=left;spacingLeft=6;fontStyle=5;fontSize=12;" parent="XCzEEoF6hQ8Vd370a8fC-13" vertex="1"><mxGeometry x="30" width="220" height="30" as="geometry"/></mxCell><mxCell id="XCzEEoF6hQ8Vd370a8fC-16" value="" style="shape=partialRectangle;collapsible=0;dropTarget=0;pointerEvents=0;fillColor=none;points=[[0,0.5],[1,0.5]];portConstraint=eastwest;top=0;left=0;right=0;bottom=0;fontSize=12;" parent="XCzEEoF6hQ8Vd370a8fC-12" vertex="1"><mxGeometry y="60" width="250" height="30" as="geometry"/></mxCell><mxCell id="XCzEEoF6hQ8Vd370a8fC-17" value="FK" style="shape=partialRectangle;overflow=hidden;connectable=0;fillColor=none;top=0;left=0;bottom=0;right=0;fontSize=12;" parent="XCzEEoF6hQ8Vd370a8fC-16" vertex="1"><mxGeometry width="30" height="30" as="geometry"/></mxCell><mxCell id="XCzEEoF6hQ8Vd370a8fC-18" value="indicado_por_fk" style="shape=partialRectangle;overflow=hidden;connectable=0;fillColor=none;top=0;left=0;bottom=0;right=0;align=left;spacingLeft=6;fontSize=12;" parent="XCzEEoF6hQ8Vd370a8fC-16" vertex="1"><mxGeometry x="30" width="220" height="30" as="geometry"/></mxCell><mxCell id="XCzEEoF6hQ8Vd370a8fC-19" value="" style="edgeStyle=entityRelationEdgeStyle;fontSize=12;html=1;endArrow=ERoneToMany;exitX=1;exitY=0.5;exitDx=0;exitDy=0;" parent="XCzEEoF6hQ8Vd370a8fC-12" source="XCzEEoF6hQ8Vd370a8fC-13" target="XCzEEoF6hQ8Vd370a8fC-16" edge="1"><mxGeometry width="100" height="100" relative="1" as="geometry"><mxPoint x="284" y="50" as="sourcePoint"/><mxPoint x="384" y="-50" as="targetPoint"/></mxGeometry></mxCell></root></mxGraphModel></diagram></mxfile>